<svg width="40" height="40" viewBox="0 0 40 40" fill="grey" xmlns="http://www.w3.org/2000/svg">
<path fill-rule="evenodd" clip-rule="evenodd" d="M13.3332 8.33317C13.3332 9.24984 12.5832 9.99984 11.6665 9.99984H9.99984V29.9998H11.6665C12.5832 29.9998 13.3332 30.7498 13.3332 31.6665C13.3332 32.5832 12.5832 33.3332 11.6665 33.3332H8.33317C7.4165 33.3332 6.6665 32.5832 6.6665 31.6665V8.33317C6.6665 7.4165 7.4165 6.6665 8.33317 6.6665H11.6665C12.5832 6.6665 13.3332 7.4165 13.3332 8.33317ZM30.0063 12.3745L34.6963 19.0412C35.113 19.6312 35.0997 20.4228 34.6663 20.9995L29.6663 27.6662C29.3397 28.1028 28.838 28.3328 28.3313 28.3328C27.9847 28.3328 27.633 28.2245 27.333 27.9995C26.5963 27.4478 26.448 26.4028 26.9997 25.6678L30.0013 21.6662H29.9997H16.6663C15.7463 21.6662 14.9997 20.9212 14.9997 19.9995C14.9997 19.0778 15.7463 18.3328 16.6663 18.3328H29.9997C30.0272 18.3328 30.0528 18.3404 30.0785 18.3481C30.0995 18.3543 30.1206 18.3606 30.143 18.3628L27.2797 14.2912C26.7497 13.5395 26.9313 12.4995 27.6847 11.9695C28.4363 11.4378 29.4763 11.6212 30.0063 12.3745Z" fill="grey"/>
</svg>
