<svg width="24" height="40" viewBox="0 0 24 40" fill="none" xmlns="http://www.w3.org/2000/svg">
<path d="M5 1.53846L5 38.4615C5 39.3026 3.86667 40 2.5 40C1.13333 40 0 39.3026 0 38.4615L0 1.53846C0 0.697433 1.13333 -3.8147e-06 2.5 -3.8147e-06C3.86667 -3.8147e-06 5 0.697433 5 1.53846Z" fill="#D4FFD4"/>
<path d="M14.5 1.53846L14.5 38.4615C14.5 39.3026 13.3667 40 12 40C10.6333 40 9.5 39.3026 9.5 38.4615L9.5 1.53846C9.5 0.697433 10.6333 -3.8147e-06 12 -3.8147e-06C13.3667 -3.8147e-06 14.5 0.697433 14.5 1.53846Z" fill="#D4FFD4"/>
<path d="M24 1.53846L24 38.4615C24 39.3026 22.8667 40 21.5 40C20.1333 40 19 39.3026 19 38.4615L19 1.53846C19 0.697433 20.1333 -3.8147e-06 21.5 -3.8147e-06C22.8667 -3.8147e-06 24 0.697433 24 1.53846Z" fill="#D4FFD4"/>
</svg>
